<svg width="24" height="16" viewBox="0 0 24 16" fill="none" xmlns="http://www.w3.org/2000/svg">
<g clip-path="url(#clip0)">
<path d="M23.725 7.55759C23.7248 7.5574 23.7245 7.55718 23.7242 7.557L18.8256 4.307C18.4586 4.06353 17.865 4.06444 17.4997 4.30912C17.1345 4.55378 17.1359 4.9495 17.5028 5.193L20.7918 7.375L0.9375 7.375C0.419719 7.375 0 7.65481 0 8C0 8.34518 0.419719 8.625 0.9375 8.625L20.7917 8.625L17.5029 10.807C17.1359 11.0505 17.1345 11.4462 17.4998 11.6909C17.865 11.9356 18.4587 11.9364 18.8256 11.693L23.7242 8.443C23.7245 8.44281 23.7248 8.44259 23.7251 8.4424C24.0923 8.19809 24.0911 7.80109 23.725 7.55759Z" fill="#FBD784"/>
</g>
<defs>
<clipPath id="clip0">
<rect width="24" height="16" fill="white"/>
</clipPath>
</defs>
</svg>
