<svg width="16" height="24" viewBox="0 0 16 24" fill="none" xmlns="http://www.w3.org/2000/svg">
<g clip-path="url(#clip0)">
<path d="M8.44233 23.725C8.44252 23.7247 8.44274 23.7245 8.44293 23.7242L11.6929 18.8256C11.9364 18.4586 11.9355 17.865 11.6908 17.4997C11.4461 17.1345 11.0504 17.1359 10.8069 17.5028L8.62493 20.7918L8.62493 0.9375C8.62493 0.419719 8.34511 -1.54293e-07 7.99993 -1.69381e-07C7.65474 -1.8447e-07 7.37493 0.419719 7.37493 0.9375L7.37493 20.7917L5.19293 17.5029C4.94943 17.1359 4.55371 17.1345 4.30905 17.4997C4.06433 17.865 4.06349 18.4587 4.30693 18.8256L7.55693 23.7242C7.55711 23.7245 7.55733 23.7248 7.55752 23.7251C7.80183 24.0923 8.19883 24.0911 8.44233 23.725Z" fill="white"/>
</g>
<defs>
<clipPath id="clip0">
<rect width="24" height="16" fill="white" transform="translate(16) rotate(90)"/>
</clipPath>
</defs>
</svg>
